<svg width="71" height="71" viewBox="0 0 71 71" fill="none" xmlns="http://www.w3.org/2000/svg">
<circle cx="5.16206" cy="5.16206" r="5.16206" transform="matrix(-1 8.74228e-08 8.74228e-08 1 42.2133 60.0135)" fill="white"/>
<circle cx="5.53077" cy="5.53077" r="5.53077" transform="matrix(-1 8.74228e-08 8.74228e-08 1 21.2918 52.8649)" fill="white"/>
<circle cx="5.89949" cy="5.89949" r="5.89949" transform="matrix(-1 8.74228e-08 8.74228e-08 1 11.9352 32.0835)" fill="white"/>
<circle cx="6.26821" cy="6.26821" r="6.26821" transform="matrix(-1 8.74228e-08 8.74228e-08 1 19.9653 10.7067)" fill="white"/>
<circle cx="7.37436" cy="7.37436" r="7.37436" transform="matrix(-1 8.74228e-08 8.74228e-08 1 42.2133 0.0180664)" fill="white"/>
<circle cx="1.47487" cy="1.47487" r="1.47487" transform="matrix(-1 8.74228e-08 8.74228e-08 1 63.1345 14.344)" fill="white"/>
<circle cx="3.31846" cy="3.31846" r="3.31846" transform="matrix(-1 8.74228e-08 8.74228e-08 1 70.7961 33.1139)" fill="white"/>
<circle cx="4.0559" cy="4.0559" r="4.0559" transform="matrix(-1 8.74228e-08 8.74228e-08 1 63.1345 54.9163)" fill="white"/>
</svg>
