<svg viewBox="0 0 22 22" fill="none" xmlns="http://www.w3.org/2000/svg">
<path d="M0.200195 11.3568C0.200195 10.9852 0.200195 10.6139 0.200195 10.2422C0.212344 10.1829 0.230842 10.1241 0.23526 10.0644C0.354257 8.42608 0.82224 6.89236 1.6762 5.49145C3.35183 2.74181 5.7754 1.05266 8.94747 0.458499C9.34422 0.384229 9.74815 0.347784 10.1488 0.293945C10.5615 0.293945 10.9743 0.293945 11.3871 0.293945C11.7407 0.338121 12.0963 0.369872 12.4475 0.42868C14.6395 0.79506 16.5534 1.73379 18.1315 3.2998C20.5258 5.67561 21.5802 8.56882 21.2763 11.9239C21.0747 14.1504 20.2194 16.1325 18.7224 17.7971C16.2074 20.5936 13.0569 21.7698 9.32048 21.3217C7.81244 21.1409 6.41843 20.6096 5.13817 19.7902C5.01006 19.7082 4.90073 19.6952 4.75633 19.7422C3.54206 20.1367 2.32531 20.5241 1.1091 20.9128C1.04809 20.9324 0.98486 20.9454 0.904516 20.9664C0.931574 20.8822 0.950072 20.8239 0.969399 20.7656C1.35593 19.6138 1.73888 18.4611 2.13259 17.3117C2.19361 17.1333 2.18505 17.0008 2.07295 16.8407C1.19359 15.5836 0.625935 14.194 0.365853 12.6829C0.290755 12.2439 0.25431 11.7989 0.200195 11.3568ZM14.1839 16.8161C14.529 16.7495 14.8297 16.7283 15.1041 16.6325C16.5931 16.1131 17.0962 15.3972 17.1357 14.0082C17.1417 13.7964 17.0578 13.657 16.8681 13.5664C16.081 13.1912 15.2988 12.8061 14.5083 12.4378C14.1044 12.2495 13.8667 12.3259 13.5994 12.6843C13.394 12.9599 13.1938 13.2393 12.9821 13.5098C12.659 13.9223 12.4324 13.9767 11.9442 13.7774C10.1758 13.0557 8.87237 11.8094 7.89554 10.1931C7.76882 9.98353 7.77876 9.78861 7.93585 9.60473C8.10096 9.41119 8.2633 9.21406 8.44304 9.03459C8.83593 8.64254 8.98806 8.21845 8.6653 7.71016C8.66171 7.70436 8.66088 7.69718 8.65812 7.69083C8.3442 6.95173 8.03608 6.20986 7.71028 5.47599C7.65976 5.36252 7.54214 5.2264 7.43198 5.20045C6.86929 5.0682 6.30164 5.05991 5.81737 5.43071C5.37313 5.77086 5.06169 6.2267 4.86539 6.75266C4.4783 7.79023 4.60117 8.80129 5.02911 9.79855C5.34386 10.5319 5.80329 11.1743 6.2732 11.8096C7.06643 12.8817 7.9723 13.8456 9.02671 14.6681C10.1612 15.5529 11.455 16.1101 12.8203 16.5143C13.2783 16.6499 13.7546 16.723 14.1839 16.8161Z" fill="#323232"/>
</svg>