<svg width="539" height="93" viewBox="0 0 539 93" fill="none" xmlns="http://www.w3.org/2000/svg">
<path d="M8.19024 74.405C10.5967 74.1538 12.7035 74.7916 14.4914 76.3283C16.289 77.8649 17.3038 79.7495 17.5357 81.9916C17.758 84.1468 17.1588 86.1859 15.7188 88.0995C14.2788 90.013 12.3653 91.0955 9.95883 91.3467C7.55239 91.598 5.44556 90.9408 3.64798 89.3655C1.8504 87.7902 0.835642 85.925 0.603696 83.7698C0.371751 81.5277 0.970943 79.4692 2.41094 77.604C3.85093 75.7387 5.77415 74.6756 8.18058 74.4147L8.19024 74.405Z" fill="#9BA8BB"/>
<path d="M15.5152 60.8559C17.1099 60.6916 18.5015 61.1168 19.6903 62.1316C20.879 63.1463 21.5555 64.393 21.7101 65.8814C21.8648 67.3697 21.4588 68.655 20.5117 69.9211C19.5646 71.1871 18.2889 71.9023 16.6943 72.0666C15.0997 72.2309 13.708 71.796 12.5193 70.7522C11.3306 69.7085 10.6541 68.4714 10.5091 67.0508C10.3545 65.5624 10.7507 64.2094 11.7075 62.9627C12.6642 61.7257 13.9303 61.0202 15.5249 60.8559H15.5152Z" fill="#9BA8BB"/>
<path d="M27.0843 52.6881C28.215 52.5721 29.2105 52.8717 30.0513 53.5965C30.9017 54.3214 31.3753 55.2105 31.4816 56.2639C31.5879 57.3173 31.3076 58.2354 30.6311 59.1439C29.9546 60.0523 29.0462 60.5549 27.9154 60.6709C26.7847 60.7868 25.7893 60.4776 24.9388 59.7334C24.0883 58.9893 23.6148 58.1098 23.5085 57.095C23.4022 56.0803 23.6824 55.0752 24.3589 54.186C25.0354 53.3066 25.9439 52.804 27.0746 52.6881H27.0843Z" fill="#9BA8BB"/>
<path d="M38.459 49.5483C39.1838 49.471 39.812 49.6643 40.3436 50.1185C40.8848 50.5728 41.1844 51.143 41.252 51.8098C41.3197 52.4766 41.1361 53.0662 40.7108 53.6364C40.2856 54.2066 39.7057 54.5352 38.9809 54.6125C38.2561 54.6898 37.6279 54.4868 37.0867 54.0229C36.5455 53.5591 36.2459 52.9889 36.1782 52.351C36.1106 51.7132 36.2845 51.0656 36.7194 50.5051C37.1543 49.9446 37.7245 49.6256 38.4494 49.5483H38.459Z" fill="#9BA8BB"/>
<path d="M48.3948 48.7161C48.8877 48.6677 49.3226 48.7934 49.6898 49.1123C50.0571 49.4312 50.2697 49.8178 50.318 50.272C50.3567 50.6296 50.2794 50.9679 50.0957 51.2965C49.7768 51.8473 49.1679 52.2146 48.5301 52.2049C48.1339 52.2049 47.7763 52.06 47.467 51.7893C47.0998 51.4704 46.8872 51.0838 46.8388 50.6393C46.7905 50.1947 46.9161 49.7598 47.2061 49.3732C47.5057 48.9867 47.8922 48.7741 48.3948 48.7161Z" fill="#9BA8BB"/>
<path d="M90.0768 79.2747L51.5256 5.3228C49.4091 1.26376 44.4029 -0.311537 40.3439 1.80496C36.2848 3.92147 34.7095 8.92762 36.826 12.9867L75.3773 86.9289C77.4938 90.988 82.4999 92.5633 86.559 90.4468C90.618 88.3303 92.1933 83.3241 90.0768 79.2651V79.2747Z" fill="#9BA8BB"/>
<path d="M176.795 48.1377C179.25 48.1377 181.531 48.4856 183.657 49.1815C185.774 49.8773 187.31 50.5925 188.257 51.3173V58.6815C187.088 57.7924 185.493 56.9226 183.493 56.0915C181.483 55.2507 179.424 54.8351 177.308 54.8351C174.689 54.8351 172.717 55.4536 171.412 56.6714C170.098 57.8987 169.45 59.1841 169.45 60.5178C169.45 61.5809 169.827 62.6536 170.581 63.736C171.335 64.8184 172.659 65.6979 174.553 66.3744L181.579 68.8871C184.314 69.8343 186.344 71.1969 187.687 72.9848C189.021 74.7728 189.697 76.8603 189.697 79.257C189.697 81.6538 189.04 83.7413 187.735 85.6935C186.421 87.6457 184.614 89.192 182.294 90.3324C179.985 91.4728 177.317 92.043 174.312 92.043C172.698 92.043 171.006 91.8304 169.247 91.4148C167.489 90.9993 165.913 90.4967 164.522 89.9072C163.13 89.3177 162.096 88.8055 161.429 88.3609V80.9966C162.212 81.5572 163.314 82.1853 164.734 82.8812C166.155 83.577 167.672 84.1665 169.296 84.6401C170.91 85.1137 172.417 85.3553 173.809 85.3553C176.428 85.3553 178.506 84.7657 180.043 83.5963C181.579 82.427 182.343 80.9773 182.343 79.2474C182.343 77.9137 181.83 76.8506 180.796 76.0678C179.762 75.285 178.274 74.5311 176.322 73.8063L170.137 71.5448C166.899 70.3175 164.754 68.7712 163.7 66.9059C162.637 65.0407 162.115 62.9049 162.115 60.5081C162.115 56.942 163.449 53.9847 166.126 51.6459C168.803 49.3071 172.369 48.1377 176.834 48.1377H176.795Z" fill="#9BA8BB"/>
<path d="M217.627 36.9275V48.9693H229.833V55.4058H217.627V79.9147C217.627 81.6446 218.072 83.0073 218.961 84.0124C219.85 85.0175 221.222 85.5201 223.058 85.5201C224.73 85.5201 226.122 85.3074 227.243 84.8919C228.354 84.4763 229.331 84.0124 230.171 83.5099V89.1152C229.05 90.0043 227.871 90.7195 226.615 91.251C225.358 91.7826 223.677 92.0435 221.551 92.0435C217.985 92.0435 215.288 90.9708 213.481 88.8253C211.664 86.6798 210.765 83.8191 210.765 80.253V55.4155H202.734V53.4053C205.469 52.1779 207.75 50.158 209.596 47.3457C211.432 44.5334 213.056 41.0638 214.447 36.9372H217.627V36.9275Z" fill="#9BA8BB"/>
<path d="M268.124 50.2354C270.965 50.2354 273.565 50.8635 275.903 52.1199C278.242 53.3763 280.117 55.2705 281.509 57.8026C282.901 60.3443 283.596 63.5336 283.596 67.38V92.0435H276.735L276.648 68.0468C276.648 64.4227 275.855 61.6587 274.261 59.7644C272.676 57.8702 270.231 56.9231 266.945 56.9231C264.712 56.9231 262.499 57.7446 260.296 59.3875C258.092 61.0305 256.159 62.944 254.487 65.1185V92.0435H247.625V36.9275H254.487V57.6769C255.376 56.5655 256.526 55.4348 257.918 54.2944C259.31 53.154 260.885 52.1876 262.644 51.4047C264.403 50.6219 266.229 50.2354 268.124 50.2354Z" fill="#9BA8BB"/>
<path d="M360.428 36.9275V48.9693H372.634V55.4058H360.428V79.9147C360.428 81.6446 360.873 83.0073 361.762 84.0124C362.651 85.0175 364.023 85.5201 365.859 85.5201C367.531 85.5201 368.923 85.3074 370.044 84.8919C371.155 84.4763 372.132 84.0124 372.972 83.5099V89.1152C371.851 90.0043 370.672 90.7195 369.416 91.251C368.159 91.7826 366.478 92.0435 364.352 92.0435C360.786 92.0435 358.089 90.9708 356.282 88.8253C354.465 86.6798 353.566 83.8191 353.566 80.253V55.4155H345.535V53.4053C348.27 52.1779 350.551 50.158 352.397 47.3457C354.233 44.5334 355.857 41.0638 357.248 36.9372H360.428V36.9275Z" fill="#9BA8BB"/>
<path d="M495.933 48.9685V73.7287C495.933 77.4108 495.15 80.5904 493.594 83.2674C492.029 85.9445 489.912 88.003 487.235 89.4526C484.558 90.9023 481.553 91.6271 478.199 91.6271C474.845 91.6271 471.84 90.9023 469.163 89.4526C466.486 88.003 464.369 85.9445 462.804 83.2674C461.238 80.5904 460.465 77.4108 460.465 73.7287V48.9685H467.578V73.7287C467.578 77.3528 468.651 80.1265 470.796 82.0497C472.942 83.9729 475.406 84.9394 478.199 84.9394C480.992 84.9394 483.456 83.9729 485.602 82.0497C487.747 80.1265 488.82 77.3528 488.82 73.7287V48.9685H495.933Z" fill="#9BA8BB"/>
<path d="M525.477 48.1377C527.931 48.1377 530.212 48.4856 532.338 49.1815C534.455 49.8773 535.991 50.5925 536.938 51.3173V58.6815C535.769 57.7924 534.174 56.9226 532.174 56.0915C530.164 55.2507 528.105 54.8351 525.989 54.8351C523.37 54.8351 521.398 55.4536 520.093 56.6714C518.779 57.8987 518.132 59.1841 518.132 60.5178C518.132 61.5809 518.508 62.6536 519.262 63.736C520.016 64.8281 521.34 65.6979 523.234 66.3744L530.26 68.8871C532.995 69.8343 535.025 71.1969 536.368 72.9848C537.702 74.7728 538.378 76.8603 538.378 79.257C538.378 81.6538 537.721 83.7413 536.417 85.6935C535.102 87.6457 533.295 89.192 530.976 90.3324C528.666 91.4728 525.998 92.043 522.993 92.043C521.379 92.043 519.688 91.8304 517.929 91.4148C516.17 90.9993 514.594 90.4967 513.203 89.9072C511.811 89.3177 510.777 88.8055 510.11 88.3609V80.9966C510.893 81.5572 511.995 82.1853 513.415 82.8812C514.836 83.577 516.353 84.1665 517.977 84.6401C519.591 85.1137 521.099 85.3553 522.49 85.3553C525.109 85.3553 527.187 84.7657 528.724 83.5963C530.26 82.427 531.024 80.9773 531.024 79.2474C531.024 77.9137 530.512 76.8506 529.478 76.0678C528.444 75.285 526.955 74.5311 525.003 73.8063L518.818 71.5448C515.58 70.3175 513.435 68.7712 512.381 66.9059C511.318 65.0407 510.796 62.9049 510.796 60.5081C510.796 56.942 512.13 53.9847 514.807 51.6459C517.484 49.3071 521.05 48.1377 525.515 48.1377H525.477Z" fill="#9BA8BB"/>
<path d="M390.958 48.9685V55.4147V90.7863H397.82V48.9685H390.958Z" fill="#9BA8BB"/>
<path d="M138.659 81.5181C137.905 82.04 137.122 82.5619 136.271 83.0548C133.652 84.5914 130.84 85.3549 127.825 85.3549C125.148 85.3549 122.78 84.7847 120.712 83.6443C118.653 82.5039 116.972 80.9576 115.696 79.0054C114.411 77.0532 113.608 74.9077 113.27 72.5689H145.385V68.4712C145.385 64.6248 144.67 61.1649 143.249 58.1013C141.828 55.0377 139.693 52.6119 136.851 50.824C134.01 49.0361 130.434 48.147 126.143 48.147C122.239 48.147 118.769 49.1521 115.735 51.1623C112.69 53.1725 110.313 55.8495 108.583 59.1934C106.853 62.5373 105.993 66.1904 105.993 70.1528C105.993 74.1152 106.93 77.749 108.796 81.0639C110.661 84.3788 113.241 87.0461 116.527 89.0467C119.813 91.0569 123.582 92.062 127.815 92.062C129.99 92.062 132.067 91.7141 134.049 91.0182C136.03 90.3224 137.779 89.4622 139.316 88.4282C140.736 87.4714 141.809 86.5629 142.592 85.6738L138.649 81.5374L138.659 81.5181ZM117.619 58.2946C119.852 55.9848 122.693 54.8251 126.153 54.8251C128.105 54.8251 129.97 55.26 131.758 56.1201C133.546 56.9899 135.063 58.2849 136.32 60.0052C137.576 61.7351 138.34 63.9676 138.62 66.6929H113.444C114.005 63.407 115.396 60.6044 117.629 58.2849L117.619 58.2946Z" fill="#9BA8BB"/>
<path d="M329.454 81.5181C328.7 82.04 327.918 82.5619 327.067 83.0548C324.448 84.5914 321.636 85.3549 318.62 85.3549C315.943 85.3549 313.576 84.7847 311.507 83.6443C309.449 82.5039 307.767 80.9576 306.492 79.0054C305.206 77.0532 304.404 74.9077 304.066 72.5689H336.181V68.4712C336.181 64.6248 335.465 61.1649 334.045 58.1013C332.624 55.0377 330.488 52.6119 327.647 50.824C324.806 49.0361 321.23 48.147 316.939 48.147C313.034 48.147 309.565 49.1521 306.53 51.1623C303.486 53.1725 301.109 55.8495 299.379 59.1934C297.649 62.5373 296.789 66.1904 296.789 70.1528C296.789 74.1152 297.726 77.749 299.591 81.0639C301.456 84.3788 304.037 87.0461 307.323 89.0467C310.609 91.0569 314.378 92.062 318.611 92.062C320.785 92.062 322.863 91.7141 324.844 91.0182C326.826 90.3224 328.575 89.4622 330.111 88.4282C331.532 87.4714 332.605 86.5629 333.388 85.6738L329.445 81.5374L329.454 81.5181ZM308.415 58.2946C310.647 55.9848 313.489 54.8251 316.948 54.8251C318.901 54.8251 320.766 55.26 322.554 56.1201C324.342 56.9899 325.859 58.2849 327.115 60.0052C328.372 61.7351 329.135 63.9676 329.416 66.6929H304.24C304.8 63.407 306.192 60.6044 308.424 58.2849L308.415 58.2946Z" fill="#9BA8BB"/>
<path d="M446.297 88.6689C444.354 89.6836 440.044 91.0366 434.555 91.0366C422.223 91.0366 414.192 82.6769 414.192 70.1712C414.192 57.6655 422.813 48.4553 436.159 48.4553C440.556 48.4553 444.441 49.5571 446.461 50.5718L444.77 56.3125C442.992 55.2977 440.208 54.3699 436.149 54.3699C426.775 54.3699 421.701 61.2993 421.701 69.833C421.701 79.2944 427.78 85.122 435.898 85.122C440.121 85.122 442.914 84.0203 445.021 83.0925L446.287 88.6689H446.297Z" fill="#9BA8BB"/>
</svg>
