<svg width="171" height="30" viewBox="0 0 171 30" fill="none" xmlns="http://www.w3.org/2000/svg">
<path d="M2.54409 23.865C3.30609 23.7854 3.97321 23.9874 4.53935 24.474C5.10855 24.9606 5.42987 25.5573 5.50332 26.2673C5.5737 26.9497 5.38397 27.5954 4.928 28.2013C4.47203 28.8072 3.8661 29.15 3.10411 29.2296C2.34212 29.3091 1.67499 29.101 1.1058 28.6022C0.536596 28.1034 0.215274 27.5128 0.141829 26.8303C0.0683837 26.1204 0.258117 25.4686 0.714088 24.8779C1.17006 24.2873 1.77904 23.9507 2.54103 23.8681L2.54409 23.865Z" fill="white"/>
<path d="M4.86356 19.5748C5.36849 19.5228 5.80916 19.6575 6.18557 19.9788C6.56197 20.3001 6.77619 20.6949 6.82515 21.1661C6.87411 21.6374 6.74558 22.0444 6.44568 22.4453C6.14578 22.8462 5.74184 23.0727 5.2369 23.1247C4.73197 23.1767 4.2913 23.039 3.91489 22.7085C3.53848 22.378 3.32427 21.9863 3.27837 21.5364C3.2294 21.0652 3.35487 20.6367 3.65783 20.242C3.96079 19.8503 4.36168 19.6269 4.86662 19.5748H4.86356Z" fill="white"/>
<path d="M8.52691 16.9886C8.88495 16.9519 9.20015 17.0468 9.46639 17.2763C9.73569 17.5058 9.88564 17.7873 9.9193 18.1209C9.95297 18.4545 9.86422 18.7452 9.65001 19.0329C9.43579 19.3205 9.14813 19.4796 8.79009 19.5164C8.43204 19.5531 8.11684 19.4552 7.84754 19.2195C7.57824 18.9839 7.42829 18.7054 7.39463 18.3841C7.36097 18.0628 7.44971 17.7445 7.66393 17.463C7.87814 17.1845 8.1658 17.0254 8.52385 16.9886H8.52691Z" fill="white"/>
<path d="M12.1285 15.994C12.3581 15.9695 12.557 16.0307 12.7253 16.1746C12.8967 16.3184 12.9915 16.499 13.0129 16.7101C13.0344 16.9213 12.9762 17.1079 12.8416 17.2885C12.7069 17.469 12.5233 17.5731 12.2938 17.5976C12.0643 17.6221 11.8654 17.5578 11.694 17.4109C11.5226 17.264 11.4278 17.0835 11.4063 16.8815C11.3849 16.6795 11.44 16.4745 11.5777 16.297C11.7154 16.1195 11.896 16.0185 12.1255 15.994H12.1285Z" fill="white"/>
<path d="M15.2747 15.7307C15.4308 15.7154 15.5685 15.7552 15.6848 15.8562C15.8011 15.9572 15.8684 16.0796 15.8837 16.2234C15.8959 16.3366 15.8714 16.4437 15.8133 16.5478C15.7123 16.7222 15.5195 16.8385 15.3175 16.8354C15.1921 16.8354 15.0788 16.7895 14.9809 16.7039C14.8646 16.6029 14.7973 16.4805 14.782 16.3397C14.7667 16.1989 14.8065 16.0612 14.8983 15.9388C14.9932 15.8164 15.1156 15.7491 15.2747 15.7307Z" fill="white"/>
<path d="M28.4732 25.4071L16.2661 1.9904C15.5959 0.705115 14.0107 0.2063 12.7254 0.876486C11.4401 1.54667 10.9413 3.13186 11.6115 4.41715L23.8187 27.8308C24.4888 29.1161 26.074 29.6149 27.3593 28.9447C28.6446 28.2746 29.1434 26.6894 28.4732 25.4041V25.4071Z" fill="white"/>
<path d="M55.9326 15.5474C56.7099 15.5474 57.4321 15.6575 58.1054 15.8779C58.7756 16.0982 59.2621 16.3247 59.562 16.5542V18.8861C59.1918 18.6045 58.6868 18.3291 58.0534 18.0659C57.4168 17.7997 56.765 17.6681 56.0948 17.6681C55.2655 17.6681 54.6412 17.8639 54.2281 18.2495C53.8119 18.6382 53.6069 19.0452 53.6069 19.4675C53.6069 19.8041 53.7262 20.1438 53.9649 20.4865C54.2036 20.8293 54.6229 21.1078 55.2227 21.322L57.4474 22.1176C58.3135 22.4175 58.9561 22.849 59.3815 23.4152C59.8038 23.9813 60.018 24.6423 60.018 25.4012C60.018 26.1602 59.8099 26.8212 59.3968 27.4393C58.9806 28.0575 58.4083 28.5471 57.6739 28.9082C56.9425 29.2693 56.0979 29.4499 55.1462 29.4499C54.6351 29.4499 54.0996 29.3826 53.5426 29.251C52.9856 29.1194 52.4868 28.9603 52.0462 28.7736C51.6055 28.5869 51.278 28.4247 51.0669 28.284V25.9521C51.3148 26.1296 51.6636 26.3285 52.1135 26.5488C52.5633 26.7692 53.0438 26.9558 53.5579 27.1058C54.069 27.2557 54.5464 27.3322 54.987 27.3322C55.8163 27.3322 56.4743 27.1456 56.9609 26.7753C57.4474 26.405 57.6892 25.946 57.6892 25.3982C57.6892 24.9759 57.527 24.6392 57.1996 24.3914C56.8721 24.1435 56.4008 23.9048 55.7827 23.6753L53.8241 22.9592C52.799 22.5705 52.1196 22.0809 51.786 21.4903C51.4494 20.8997 51.2842 20.2234 51.2842 19.4644C51.2842 18.3352 51.7065 17.3988 52.5542 16.6582C53.4018 15.9176 54.5311 15.5474 55.9449 15.5474H55.9326Z" fill="white"/>
<path d="M68.8618 11.9976V15.8106H72.7268V17.8487H68.8618V25.6094C68.8618 26.1572 69.0025 26.5886 69.2841 26.9069C69.5656 27.2252 70.0002 27.3843 70.5816 27.3843C71.111 27.3843 71.5517 27.317 71.9067 27.1854C72.2586 27.0538 72.5677 26.9069 72.8339 26.7478V28.5227C72.4789 28.8042 72.1056 29.0307 71.7078 29.199C71.3099 29.3673 70.7775 29.4499 70.1042 29.4499C68.975 29.4499 68.1212 29.1103 67.5489 28.4309C66.9736 27.7515 66.689 26.8457 66.689 25.7165V17.8517H64.146V17.2152C65.012 16.8266 65.7342 16.187 66.3187 15.2965C66.9002 14.4059 67.4143 13.3073 67.855 12.0006H68.8618V11.9976Z" fill="white"/>
<path d="M84.8515 16.2115C85.7513 16.2115 86.5744 16.4104 87.315 16.8082C88.0556 17.206 88.6493 17.8058 89.0899 18.6076C89.5306 19.4124 89.7509 20.4223 89.7509 21.6403V29.4499H87.5782L87.5507 21.8514C87.5507 20.7039 87.2997 19.8286 86.7948 19.2288C86.2929 18.629 85.5187 18.3291 84.4782 18.3291C83.7713 18.3291 83.0705 18.5893 82.3728 19.1095C81.675 19.6297 81.063 20.2356 80.5336 20.9242V29.4499H78.3608V11.9976H80.5336V18.5678C80.8151 18.2159 81.1793 17.8579 81.62 17.4968C82.0606 17.1357 82.5594 16.8296 83.1164 16.5818C83.6734 16.3339 84.2517 16.2115 84.8515 16.2115Z" fill="white"/>
<path d="M114.08 11.9976V15.8106H117.945V17.8487H114.08V25.6094C114.08 26.1572 114.22 26.5886 114.502 26.9069C114.783 27.2252 115.218 27.3843 115.799 27.3843C116.329 27.3843 116.769 27.317 117.124 27.1854C117.476 27.0538 117.785 26.9069 118.052 26.7478V28.5227C117.697 28.8042 117.323 29.0307 116.926 29.199C116.528 29.3673 115.995 29.4499 115.322 29.4499C114.193 29.4499 113.339 29.1103 112.767 28.4309C112.191 27.7515 111.907 26.8457 111.907 25.7165V17.8517H109.364V17.2152C110.23 16.8266 110.952 16.187 111.537 15.2965C112.118 14.4059 112.632 13.3073 113.073 12.0006H114.08V11.9976Z" fill="white"/>
<path d="M156.987 15.8105V23.6508C156.987 24.8167 156.739 25.8236 156.246 26.6712C155.751 27.5189 155.08 28.1707 154.233 28.6298C153.385 29.0888 152.433 29.3183 151.371 29.3183C150.309 29.3183 149.358 29.0888 148.51 28.6298C147.662 28.1707 146.992 27.5189 146.496 26.6712C146.001 25.8236 145.756 24.8167 145.756 23.6508V15.8105H148.008V23.6508C148.008 24.7984 148.348 25.6767 149.027 26.2856C149.707 26.8946 150.487 27.2007 151.371 27.2007C152.256 27.2007 153.036 26.8946 153.715 26.2856C154.395 25.6767 154.735 24.7984 154.735 23.6508V15.8105H156.987Z" fill="white"/>
<path d="M166.342 15.5474C167.119 15.5474 167.841 15.6575 168.515 15.8779C169.185 16.0982 169.671 16.3247 169.971 16.5542V18.8861C169.601 18.6045 169.096 18.3291 168.463 18.0659C167.826 17.7997 167.174 17.6681 166.504 17.6681C165.675 17.6681 165.05 17.8639 164.637 18.2495C164.221 18.6382 164.016 19.0452 164.016 19.4675C164.016 19.8041 164.135 20.1438 164.374 20.4865C164.613 20.8323 165.032 21.1078 165.632 21.322L167.857 22.1176C168.723 22.4175 169.365 22.849 169.791 23.4152C170.213 23.9813 170.427 24.6423 170.427 25.4012C170.427 26.1602 170.219 26.8212 169.806 27.4393C169.39 28.0575 168.818 28.5471 168.083 28.9082C167.352 29.2693 166.507 29.4499 165.555 29.4499C165.044 29.4499 164.509 29.3826 163.952 29.251C163.395 29.1194 162.896 28.9603 162.455 28.7736C162.015 28.5869 161.687 28.4247 161.476 28.284V25.9521C161.724 26.1296 162.073 26.3285 162.523 26.5488C162.973 26.7692 163.453 26.9558 163.967 27.1058C164.478 27.2557 164.956 27.3322 165.396 27.3322C166.226 27.3322 166.883 27.1456 167.37 26.7753C167.857 26.405 168.098 25.946 168.098 25.3982C168.098 24.9759 167.936 24.6392 167.609 24.3914C167.281 24.1435 166.81 23.9048 166.192 23.6753L164.233 22.9592C163.208 22.5705 162.529 22.0809 162.195 21.4903C161.859 20.8997 161.693 20.2234 161.693 19.4644C161.693 18.3352 162.116 17.3988 162.963 16.6582C163.811 15.9176 164.94 15.5474 166.354 15.5474H166.342Z" fill="white"/>
<path d="M123.747 15.8105V17.8517V29.0521H125.92V15.8105H123.747Z" fill="white"/>
<path d="M43.8567 26.1172C43.618 26.2825 43.3701 26.4477 43.1008 26.6038C42.2715 27.0903 41.381 27.3321 40.4262 27.3321C39.5785 27.3321 38.8288 27.1516 38.1739 26.7904C37.5221 26.4293 36.9896 25.9397 36.5856 25.3215C36.1786 24.7034 35.9246 24.024 35.8175 23.2834H45.9866V21.9859C45.9866 20.768 45.7601 19.6724 45.3103 18.7023C44.8604 17.7322 44.1841 16.9641 43.2844 16.398C42.3847 15.8318 41.2525 15.5503 39.8937 15.5503C38.6574 15.5503 37.5588 15.8686 36.5979 16.5051C35.6339 17.1416 34.8811 17.9893 34.3333 19.0481C33.7855 20.1069 33.5132 21.2637 33.5132 22.5184C33.5132 23.7731 33.81 24.9237 34.4006 25.9734C34.9913 27.023 35.8083 27.8676 36.8488 28.5011C37.8893 29.1376 39.0828 29.4559 40.4231 29.4559C41.1117 29.4559 41.7696 29.3457 42.397 29.1254C43.0243 28.9051 43.5782 28.6327 44.0648 28.3053C44.5146 28.0023 44.8543 27.7146 45.1022 27.4331L43.8536 26.1233L43.8567 26.1172ZM37.1946 18.7635C37.9015 18.0321 38.8012 17.6649 39.8968 17.6649C40.5149 17.6649 41.1056 17.8026 41.6717 18.075C42.2378 18.3504 42.7183 18.7605 43.1161 19.3052C43.514 19.8529 43.7557 20.5599 43.8445 21.4228H35.8726C36.0501 20.3824 36.4908 19.4949 37.1977 18.7605L37.1946 18.7635Z" fill="white"/>
<path d="M104.272 26.1172C104.033 26.2825 103.785 26.4477 103.516 26.6038C102.687 27.0903 101.796 27.3321 100.841 27.3321C99.9936 27.3321 99.2438 27.1516 98.5889 26.7904C97.9371 26.4293 97.4046 25.9397 97.0007 25.3215C96.5937 24.7034 96.3397 24.024 96.2326 23.2834H106.402V21.9859C106.402 20.768 106.175 19.6724 105.725 18.7023C105.275 17.7322 104.599 16.9641 103.699 16.398C102.8 15.8318 101.667 15.5503 100.309 15.5503C99.0724 15.5503 97.9738 15.8686 97.0129 16.5051C96.0489 17.1416 95.2961 17.9893 94.7484 19.0481C94.2006 20.1069 93.9282 21.2637 93.9282 22.5184C93.9282 23.7731 94.2251 24.9237 94.8157 25.9734C95.4063 27.023 96.2234 27.8676 97.2639 28.5011C98.3043 29.1376 99.4978 29.4559 100.838 29.4559C101.527 29.4559 102.185 29.3457 102.812 29.1254C103.439 28.9051 103.993 28.6327 104.48 28.3053C104.93 28.0023 105.269 27.7146 105.517 27.4331L104.269 26.1233L104.272 26.1172ZM97.6097 18.7635C98.3166 18.0321 99.2163 17.6649 100.312 17.6649C100.93 17.6649 101.521 17.8026 102.087 18.075C102.653 18.3504 103.133 18.7605 103.531 19.3052C103.929 19.8529 104.171 20.5599 104.259 21.4228H96.2876C96.4651 20.3824 96.9058 19.4949 97.6127 18.7605L97.6097 18.7635Z" fill="white"/>
<path d="M141.27 28.382C140.654 28.7033 139.29 29.1317 137.551 29.1317C133.647 29.1317 131.104 26.4846 131.104 22.5247C131.104 18.5648 133.833 15.6484 138.059 15.6484C139.452 15.6484 140.682 15.9973 141.322 16.3186L140.786 18.1364C140.223 17.8151 139.342 17.5213 138.056 17.5213C135.088 17.5213 133.481 19.7155 133.481 22.4176C133.481 25.4136 135.406 27.2589 137.977 27.2589C139.314 27.2589 140.198 26.91 140.866 26.6162L141.266 28.382H141.27Z" fill="white"/>
</svg>
